<svg width="18" height="18" viewBox="0 0 18 18" fill="none" xmlns="http://www.w3.org/2000/svg">
<path fill-rule="evenodd" clip-rule="evenodd" d="M8.41061 0.91107C8.73604 0.585633 9.26368 0.585633 9.58912 0.91107L17.0891 8.41107C17.3274 8.6494 17.3987 9.00783 17.2698 9.31923C17.1408 9.63062 16.8369 9.83366 16.4999 9.83366H14.8332C14.373 9.83366 13.9999 9.46056 13.9999 9.00033C13.9999 8.64298 14.2248 8.33818 14.5408 8.21974L8.99986 2.67884L3.45895 8.21974C3.77494 8.33818 3.99986 8.64298 3.99986 9.00033C3.99986 9.46056 3.62677 9.83366 3.16653 9.83366H1.49986C1.16281 9.83366 0.858946 9.63062 0.729962 9.31923C0.600978 9.00783 0.672274 8.6494 0.910606 8.41107L8.41061 0.91107Z" fill="#454056"/>
<path fill-rule="evenodd" clip-rule="evenodd" d="M3.16652 8.16699C3.62676 8.16699 3.99986 8.54009 3.99986 9.00033L3.99985 14.8337C3.99985 15.0547 4.08765 15.2666 4.24393 15.4229C4.40021 15.5792 4.61217 15.667 4.83319 15.667H13.1665C13.3875 15.667 13.5995 15.5792 13.7558 15.4229C13.9121 15.2666 13.9999 15.0547 13.9999 14.8337L13.9999 9.00033C13.9999 8.54009 14.3729 8.16699 14.8332 8.16699C15.2934 8.16699 15.6665 8.54009 15.6665 9.00033V14.8337C15.6665 15.4967 15.4031 16.1326 14.9343 16.6014C14.4654 17.0703 13.8296 17.3337 13.1665 17.3337H4.83319C4.17015 17.3337 3.53426 17.0703 3.06542 16.6014C2.59658 16.1326 2.33319 15.4967 2.33319 14.8337V9.00033C2.33319 8.54009 2.70628 8.16699 3.16652 8.16699Z" fill="#454056"/>
<path fill-rule="evenodd" clip-rule="evenodd" d="M6.49987 9.00033C6.49987 8.54009 6.87297 8.16699 7.3332 8.16699H10.6665C11.1268 8.16699 11.4999 8.54009 11.4999 9.00033V12.3337C11.4999 12.7939 11.1268 13.167 10.6665 13.167H7.3332C6.87297 13.167 6.49987 12.7939 6.49987 12.3337V9.00033ZM8.16654 9.83366V11.5003H9.8332V9.83366H8.16654Z" fill="#454056"/>
</svg>
