<svg width="16" height="16" viewBox="0 0 16 16" fill="none" xmlns="http://www.w3.org/2000/svg">
<path fill-rule="evenodd" clip-rule="evenodd" d="M3 2.16667C2.53976 2.16667 2.16667 2.53976 2.16667 3V4.66667C2.16667 5.1269 2.53976 5.5 3 5.5H13C13.4602 5.5 13.8333 5.1269 13.8333 4.66667V3C13.8333 2.53976 13.4602 2.16667 13 2.16667H3ZM0.5 3C0.5 1.61929 1.61929 0.5 3 0.5H13C14.3807 0.5 15.5 1.61929 15.5 3V4.66667C15.5 6.04738 14.3807 7.16667 13 7.16667H3C1.61929 7.16667 0.5 6.04738 0.5 4.66667V3Z" fill="#9691A4"/>
<path fill-rule="evenodd" clip-rule="evenodd" d="M3 10.4998C2.53976 10.4998 2.16667 10.8729 2.16667 11.3331V12.9998C2.16667 13.46 2.53976 13.8331 3 13.8331H13C13.4602 13.8331 13.8333 13.46 13.8333 12.9998V11.3331C13.8333 10.8729 13.4602 10.4998 13 10.4998H3ZM0.5 11.3331C0.5 9.95238 1.61929 8.83309 3 8.83309H13C14.3807 8.83309 15.5 9.95238 15.5 11.3331V12.9998C15.5 14.3805 14.3807 15.4998 13 15.4998H3C1.61929 15.4998 0.5 14.3805 0.5 12.9998V11.3331Z" fill="#9691A4"/>
</svg>
