<svg width="16" height="18" viewBox="0 0 16 18" fill="none" xmlns="http://www.w3.org/2000/svg">
<path fill-rule="evenodd" clip-rule="evenodd" d="M7.99998 6.50011C7.07951 6.50011 6.33331 7.2463 6.33331 8.16678C6.33331 9.08725 7.07951 9.83344 7.99998 9.83344C8.92046 9.83344 9.66665 9.08725 9.66665 8.16678C9.66665 7.2463 8.92046 6.50011 7.99998 6.50011ZM4.66665 8.16678C4.66665 6.32583 6.15903 4.83345 7.99998 4.83345C9.84093 4.83345 11.3333 6.32583 11.3333 8.16678C11.3333 10.0077 9.84093 11.5001 7.99998 11.5001C6.15903 11.5001 4.66665 10.0077 4.66665 8.16678Z" fill="#9691A4"/>
<path fill-rule="evenodd" clip-rule="evenodd" d="M8 2.33366C6.84629 2.33366 5.71849 2.67577 4.75921 3.31673C3.79993 3.95769 3.05225 4.86872 2.61073 5.9346C2.16921 7.00049 2.05368 8.17336 2.27873 9.30491C2.50379 10.4365 3.05933 11.4759 3.87511 12.2917L7.41146 15.8272C7.56772 15.9833 7.77955 16.071 8.00042 16.071C8.22129 16.071 8.43312 15.9833 8.58938 15.8272L12.1249 12.2917C12.9407 11.4759 13.4962 10.4364 13.7213 9.30491C13.9463 8.17336 13.8308 7.00049 13.3893 5.9346C12.9478 4.86872 12.2001 3.95769 11.2408 3.31673C10.2815 2.67577 9.15371 2.33366 8 2.33366ZM13.3034 13.4702C14.3523 12.4212 15.0666 11.0849 15.3559 9.63003C15.6453 8.17518 15.4967 6.6672 14.9291 5.29678C14.3614 3.92635 13.4001 2.75504 12.1667 1.93094C10.9334 1.10685 9.48335 0.666992 8 0.666992C6.51666 0.666992 5.06663 1.10685 3.83327 1.93094C2.59991 2.75504 1.63861 3.92635 1.07094 5.29678C0.503275 6.6672 0.354728 8.17518 0.644085 9.63003C0.933443 11.0849 1.64771 12.4212 2.69657 13.4702L6.23332 17.0061C6.70208 17.4744 7.33781 17.7376 8.00042 17.7376C8.66302 17.7376 9.29853 17.4746 9.76729 17.0063L13.3034 13.4702Z" fill="#9691A4"/>
</svg>
