<svg width="20" height="20" viewBox="0 0 20 20" fill="none" xmlns="http://www.w3.org/2000/svg">
<path fill-rule="evenodd" clip-rule="evenodd" d="M8.19463 2.77821C5.20309 2.77821 2.77797 5.20334 2.77797 8.19488C2.77797 11.1864 5.20309 13.6115 8.19463 13.6115C11.1862 13.6115 13.6113 11.1864 13.6113 8.19488C13.6113 5.20334 11.1862 2.77821 8.19463 2.77821ZM0.972412 8.19488C0.972412 4.20616 4.20591 0.972656 8.19463 0.972656C12.1834 0.972656 15.4169 4.20616 15.4169 8.19488C15.4169 12.1836 12.1834 15.4171 8.19463 15.4171C4.20591 15.4171 0.972412 12.1836 0.972412 8.19488Z" fill="white"/>
<path fill-rule="evenodd" clip-rule="evenodd" d="M12.0702 12.0704C12.4227 11.7179 12.9943 11.7179 13.3469 12.0704L18.7636 17.4871C19.1161 17.8396 19.1161 18.4112 18.7636 18.7638C18.411 19.1164 17.8394 19.1164 17.4868 18.7638L12.0702 13.3471C11.7176 12.9946 11.7176 12.423 12.0702 12.0704Z" fill="white"/>
</svg>
